<mxfile host="app.diagrams.net" agent="Mozilla/5.0 (Windows NT 10.0; Win64; x64) AppleWebKit/537.36 (KHTML, like Gecko) Chrome/119.0.0.0 Safari/537.36" version="24.7.16">
  <diagram name="PÃ¡gina-1" id="drjSPsRp4G0dSwxJ71D9">
    <mxGraphModel dx="1194" dy="750" grid="1" gridSize="10" guides="1" tooltips="1" connect="1" arrows="1" fold="1" page="1" pageScale="1" pageWidth="827" pageHeight="1169" math="0" shadow="0">
      <root>
        <mxCell id="0" />
        <mxCell id="1" parent="0" />
        <mxCell id="aTauzw0q0-dwi2PWJXIT-1" value="EQUIPA" style="whiteSpace=wrap;html=1;align=center;" parent="1" vertex="1">
          <mxGeometry x="364" y="200" width="100" height="40" as="geometry" />
        </mxCell>
        <mxCell id="aTauzw0q0-dwi2PWJXIT-2" value="JOGADOR" style="whiteSpace=wrap;html=1;align=center;" parent="1" vertex="1">
          <mxGeometry x="160" y="400" width="100" height="40" as="geometry" />
        </mxCell>
        <mxCell id="aTauzw0q0-dwi2PWJXIT-3" value="JOGO" style="whiteSpace=wrap;html=1;align=center;" parent="1" vertex="1">
          <mxGeometry x="540" y="485" width="100" height="40" as="geometry" />
        </mxCell>
        <mxCell id="aTauzw0q0-dwi2PWJXIT-10" value="NumInterno" style="ellipse;whiteSpace=wrap;html=1;align=center;fontStyle=4;" parent="1" vertex="1">
          <mxGeometry x="220" y="200" width="100" height="40" as="geometry" />
        </mxCell>
        <mxCell id="aTauzw0q0-dwi2PWJXIT-11" value="" style="endArrow=none;html=1;rounded=0;" parent="1" source="aTauzw0q0-dwi2PWJXIT-10" target="aTauzw0q0-dwi2PWJXIT-1" edge="1">
          <mxGeometry relative="1" as="geometry">
            <mxPoint x="450" y="550" as="sourcePoint" />
            <mxPoint x="610" y="550" as="targetPoint" />
          </mxGeometry>
        </mxCell>
        <mxCell id="aTauzw0q0-dwi2PWJXIT-12" value="" style="endArrow=none;html=1;rounded=0;" parent="1" source="aTauzw0q0-dwi2PWJXIT-1" target="aTauzw0q0-dwi2PWJXIT-15" edge="1">
          <mxGeometry relative="1" as="geometry">
            <mxPoint x="450" y="550" as="sourcePoint" />
            <mxPoint x="414" y="280" as="targetPoint" />
          </mxGeometry>
        </mxCell>
        <mxCell id="aTauzw0q0-dwi2PWJXIT-13" value="NumJogador" style="ellipse;whiteSpace=wrap;html=1;align=center;fontStyle=4;" parent="1" vertex="1">
          <mxGeometry x="80" y="480" width="100" height="40" as="geometry" />
        </mxCell>
        <mxCell id="aTauzw0q0-dwi2PWJXIT-14" value="" style="endArrow=none;html=1;rounded=0;" parent="1" source="aTauzw0q0-dwi2PWJXIT-13" target="aTauzw0q0-dwi2PWJXIT-2" edge="1">
          <mxGeometry relative="1" as="geometry">
            <mxPoint x="450" y="550" as="sourcePoint" />
            <mxPoint x="610" y="550" as="targetPoint" />
          </mxGeometry>
        </mxCell>
        <mxCell id="aTauzw0q0-dwi2PWJXIT-15" value="Nome" style="ellipse;whiteSpace=wrap;html=1;align=center;" parent="1" vertex="1">
          <mxGeometry x="364" y="280" width="100" height="40" as="geometry" />
        </mxCell>
        <mxCell id="aTauzw0q0-dwi2PWJXIT-16" value="Morada" style="ellipse;whiteSpace=wrap;html=1;align=center;" parent="1" vertex="1">
          <mxGeometry x="550" y="200" width="100" height="40" as="geometry" />
        </mxCell>
        <mxCell id="aTauzw0q0-dwi2PWJXIT-17" value="" style="endArrow=none;html=1;rounded=0;" parent="1" source="aTauzw0q0-dwi2PWJXIT-1" target="aTauzw0q0-dwi2PWJXIT-16" edge="1">
          <mxGeometry relative="1" as="geometry">
            <mxPoint x="450" y="300" as="sourcePoint" />
            <mxPoint x="610" y="300" as="targetPoint" />
          </mxGeometry>
        </mxCell>
        <mxCell id="aTauzw0q0-dwi2PWJXIT-18" value="Nome" style="ellipse;whiteSpace=wrap;html=1;align=center;" parent="1" vertex="1">
          <mxGeometry x="220" y="480" width="100" height="40" as="geometry" />
        </mxCell>
        <mxCell id="aTauzw0q0-dwi2PWJXIT-19" value="" style="endArrow=none;html=1;rounded=0;" parent="1" source="aTauzw0q0-dwi2PWJXIT-2" target="aTauzw0q0-dwi2PWJXIT-18" edge="1">
          <mxGeometry relative="1" as="geometry">
            <mxPoint x="450" y="300" as="sourcePoint" />
            <mxPoint x="610" y="300" as="targetPoint" />
          </mxGeometry>
        </mxCell>
        <mxCell id="aTauzw0q0-dwi2PWJXIT-20" value="Rua" style="ellipse;whiteSpace=wrap;html=1;align=center;" parent="1" vertex="1">
          <mxGeometry x="550" y="290" width="100" height="40" as="geometry" />
        </mxCell>
        <mxCell id="aTauzw0q0-dwi2PWJXIT-21" value="NumPorta" style="ellipse;whiteSpace=wrap;html=1;align=center;" parent="1" vertex="1">
          <mxGeometry x="680" y="200" width="100" height="40" as="geometry" />
        </mxCell>
        <mxCell id="aTauzw0q0-dwi2PWJXIT-22" value="CodPostal" style="ellipse;whiteSpace=wrap;html=1;align=center;" parent="1" vertex="1">
          <mxGeometry x="680" y="290" width="100" height="40" as="geometry" />
        </mxCell>
        <mxCell id="aTauzw0q0-dwi2PWJXIT-23" value="Localidade" style="ellipse;whiteSpace=wrap;html=1;align=center;" parent="1" vertex="1">
          <mxGeometry x="680" y="110" width="100" height="40" as="geometry" />
        </mxCell>
        <mxCell id="aTauzw0q0-dwi2PWJXIT-24" value="Pais" style="ellipse;whiteSpace=wrap;html=1;align=center;" parent="1" vertex="1">
          <mxGeometry x="550" y="110" width="100" height="40" as="geometry" />
        </mxCell>
        <mxCell id="aTauzw0q0-dwi2PWJXIT-25" value="" style="endArrow=none;html=1;rounded=0;" parent="1" source="aTauzw0q0-dwi2PWJXIT-16" target="aTauzw0q0-dwi2PWJXIT-20" edge="1">
          <mxGeometry relative="1" as="geometry">
            <mxPoint x="470" y="370" as="sourcePoint" />
            <mxPoint x="630" y="370" as="targetPoint" />
          </mxGeometry>
        </mxCell>
        <mxCell id="aTauzw0q0-dwi2PWJXIT-26" value="" style="endArrow=none;html=1;rounded=0;" parent="1" source="aTauzw0q0-dwi2PWJXIT-16" target="aTauzw0q0-dwi2PWJXIT-22" edge="1">
          <mxGeometry relative="1" as="geometry">
            <mxPoint x="640" y="350" as="sourcePoint" />
            <mxPoint x="800" y="350" as="targetPoint" />
          </mxGeometry>
        </mxCell>
        <mxCell id="aTauzw0q0-dwi2PWJXIT-27" value="" style="endArrow=none;html=1;rounded=0;" parent="1" source="aTauzw0q0-dwi2PWJXIT-16" target="aTauzw0q0-dwi2PWJXIT-21" edge="1">
          <mxGeometry relative="1" as="geometry">
            <mxPoint x="610" y="220" as="sourcePoint" />
            <mxPoint x="770" y="220" as="targetPoint" />
          </mxGeometry>
        </mxCell>
        <mxCell id="aTauzw0q0-dwi2PWJXIT-28" value="" style="endArrow=none;html=1;rounded=0;" parent="1" source="aTauzw0q0-dwi2PWJXIT-24" target="aTauzw0q0-dwi2PWJXIT-16" edge="1">
          <mxGeometry relative="1" as="geometry">
            <mxPoint x="400" y="300" as="sourcePoint" />
            <mxPoint x="560" y="300" as="targetPoint" />
          </mxGeometry>
        </mxCell>
        <mxCell id="aTauzw0q0-dwi2PWJXIT-29" value="" style="endArrow=none;html=1;rounded=0;" parent="1" source="aTauzw0q0-dwi2PWJXIT-16" target="aTauzw0q0-dwi2PWJXIT-23" edge="1">
          <mxGeometry relative="1" as="geometry">
            <mxPoint x="400" y="300" as="sourcePoint" />
            <mxPoint x="560" y="300" as="targetPoint" />
          </mxGeometry>
        </mxCell>
        <mxCell id="aTauzw0q0-dwi2PWJXIT-30" value="AnoFundacao" style="ellipse;whiteSpace=wrap;html=1;align=center;" parent="1" vertex="1">
          <mxGeometry x="364" y="110" width="100" height="40" as="geometry" />
        </mxCell>
        <mxCell id="aTauzw0q0-dwi2PWJXIT-31" value="" style="endArrow=none;html=1;rounded=0;" parent="1" source="aTauzw0q0-dwi2PWJXIT-30" target="aTauzw0q0-dwi2PWJXIT-1" edge="1">
          <mxGeometry relative="1" as="geometry">
            <mxPoint x="400" y="190" as="sourcePoint" />
            <mxPoint x="560" y="190" as="targetPoint" />
          </mxGeometry>
        </mxCell>
        <mxCell id="aTauzw0q0-dwi2PWJXIT-32" value="DataNascimento" style="ellipse;whiteSpace=wrap;html=1;align=center;" parent="1" vertex="1">
          <mxGeometry x="300" y="400" width="100" height="40" as="geometry" />
        </mxCell>
        <mxCell id="aTauzw0q0-dwi2PWJXIT-33" value="" style="endArrow=none;html=1;rounded=0;" parent="1" source="aTauzw0q0-dwi2PWJXIT-2" target="aTauzw0q0-dwi2PWJXIT-32" edge="1">
          <mxGeometry relative="1" as="geometry">
            <mxPoint x="400" y="300" as="sourcePoint" />
            <mxPoint x="560" y="300" as="targetPoint" />
          </mxGeometry>
        </mxCell>
        <mxCell id="aTauzw0q0-dwi2PWJXIT-34" value="Idade" style="ellipse;whiteSpace=wrap;html=1;align=center;dashed=1;" parent="1" vertex="1">
          <mxGeometry x="220" y="330" width="100" height="40" as="geometry" />
        </mxCell>
        <mxCell id="aTauzw0q0-dwi2PWJXIT-35" value="" style="endArrow=none;html=1;rounded=0;dashed=1;" parent="1" source="aTauzw0q0-dwi2PWJXIT-34" target="aTauzw0q0-dwi2PWJXIT-2" edge="1">
          <mxGeometry relative="1" as="geometry">
            <mxPoint x="90" y="390" as="sourcePoint" />
            <mxPoint x="250" y="390" as="targetPoint" />
          </mxGeometry>
        </mxCell>
        <mxCell id="aTauzw0q0-dwi2PWJXIT-36" value="Genero" style="ellipse;whiteSpace=wrap;html=1;align=center;" parent="1" vertex="1">
          <mxGeometry x="100" y="330" width="100" height="40" as="geometry" />
        </mxCell>
        <mxCell id="aTauzw0q0-dwi2PWJXIT-37" value="" style="endArrow=none;html=1;rounded=0;" parent="1" source="aTauzw0q0-dwi2PWJXIT-36" target="aTauzw0q0-dwi2PWJXIT-2" edge="1">
          <mxGeometry relative="1" as="geometry">
            <mxPoint x="400" y="300" as="sourcePoint" />
            <mxPoint x="560" y="300" as="targetPoint" />
          </mxGeometry>
        </mxCell>
        <mxCell id="aTauzw0q0-dwi2PWJXIT-38" value="Posicao" style="ellipse;whiteSpace=wrap;html=1;align=center;" parent="1" vertex="1">
          <mxGeometry x="20" y="400" width="100" height="40" as="geometry" />
        </mxCell>
        <mxCell id="aTauzw0q0-dwi2PWJXIT-39" value="" style="endArrow=none;html=1;rounded=0;" parent="1" source="aTauzw0q0-dwi2PWJXIT-38" target="aTauzw0q0-dwi2PWJXIT-2" edge="1">
          <mxGeometry relative="1" as="geometry">
            <mxPoint x="160" y="450" as="sourcePoint" />
            <mxPoint x="320" y="450" as="targetPoint" />
          </mxGeometry>
        </mxCell>
        <mxCell id="aTauzw0q0-dwi2PWJXIT-40" value="NumJogo" style="ellipse;whiteSpace=wrap;html=1;align=center;fontStyle=4;" parent="1" vertex="1">
          <mxGeometry x="540" y="545" width="100" height="40" as="geometry" />
        </mxCell>
        <mxCell id="aTauzw0q0-dwi2PWJXIT-41" value="" style="endArrow=none;html=1;rounded=0;" parent="1" source="aTauzw0q0-dwi2PWJXIT-3" target="aTauzw0q0-dwi2PWJXIT-40" edge="1">
          <mxGeometry relative="1" as="geometry">
            <mxPoint x="580" y="545" as="sourcePoint" />
            <mxPoint x="740" y="545" as="targetPoint" />
          </mxGeometry>
        </mxCell>
        <mxCell id="aTauzw0q0-dwi2PWJXIT-42" value="Data" style="ellipse;whiteSpace=wrap;html=1;align=center;" parent="1" vertex="1">
          <mxGeometry x="680" y="545" width="100" height="40" as="geometry" />
        </mxCell>
        <mxCell id="aTauzw0q0-dwi2PWJXIT-43" value="" style="endArrow=none;html=1;rounded=0;" parent="1" source="aTauzw0q0-dwi2PWJXIT-3" target="aTauzw0q0-dwi2PWJXIT-42" edge="1">
          <mxGeometry relative="1" as="geometry">
            <mxPoint x="540" y="545" as="sourcePoint" />
            <mxPoint x="700" y="545" as="targetPoint" />
          </mxGeometry>
        </mxCell>
        <mxCell id="aTauzw0q0-dwi2PWJXIT-44" value="Local" style="ellipse;whiteSpace=wrap;html=1;align=center;" parent="1" vertex="1">
          <mxGeometry x="680" y="485" width="100" height="40" as="geometry" />
        </mxCell>
        <mxCell id="aTauzw0q0-dwi2PWJXIT-45" value="" style="endArrow=none;html=1;rounded=0;" parent="1" source="aTauzw0q0-dwi2PWJXIT-3" target="aTauzw0q0-dwi2PWJXIT-44" edge="1">
          <mxGeometry relative="1" as="geometry">
            <mxPoint x="660" y="475" as="sourcePoint" />
            <mxPoint x="820" y="475" as="targetPoint" />
          </mxGeometry>
        </mxCell>
        <mxCell id="aTauzw0q0-dwi2PWJXIT-46" value="Visitado" style="ellipse;whiteSpace=wrap;html=1;align=center;" parent="1" vertex="1">
          <mxGeometry x="540" y="415" width="100" height="40" as="geometry" />
        </mxCell>
        <mxCell id="aTauzw0q0-dwi2PWJXIT-47" value="" style="endArrow=none;html=1;rounded=0;" parent="1" source="aTauzw0q0-dwi2PWJXIT-46" target="aTauzw0q0-dwi2PWJXIT-3" edge="1">
          <mxGeometry relative="1" as="geometry">
            <mxPoint x="470" y="455" as="sourcePoint" />
            <mxPoint x="630" y="455" as="targetPoint" />
          </mxGeometry>
        </mxCell>
        <mxCell id="aTauzw0q0-dwi2PWJXIT-48" value="Visitante" style="ellipse;whiteSpace=wrap;html=1;align=center;" parent="1" vertex="1">
          <mxGeometry x="680" y="415" width="100" height="40" as="geometry" />
        </mxCell>
        <mxCell id="aTauzw0q0-dwi2PWJXIT-49" value="" style="endArrow=none;html=1;rounded=0;" parent="1" source="aTauzw0q0-dwi2PWJXIT-48" target="aTauzw0q0-dwi2PWJXIT-3" edge="1">
          <mxGeometry relative="1" as="geometry">
            <mxPoint x="360" y="495" as="sourcePoint" />
            <mxPoint x="520" y="495" as="targetPoint" />
          </mxGeometry>
        </mxCell>
        <mxCell id="aTauzw0q0-dwi2PWJXIT-51" value="Resultado?" style="ellipse;whiteSpace=wrap;html=1;align=center;" parent="1" vertex="1">
          <mxGeometry x="400" y="485" width="100" height="40" as="geometry" />
        </mxCell>
        <mxCell id="aTauzw0q0-dwi2PWJXIT-52" value="" style="endArrow=none;html=1;rounded=0;" parent="1" source="aTauzw0q0-dwi2PWJXIT-51" target="aTauzw0q0-dwi2PWJXIT-3" edge="1">
          <mxGeometry relative="1" as="geometry">
            <mxPoint x="360" y="575" as="sourcePoint" />
            <mxPoint x="500" y="565" as="targetPoint" />
          </mxGeometry>
        </mxCell>
        <mxCell id="anePZA5oc9GcaVcJhizd-1" value="JOGOU" style="shape=rhombus;perimeter=rhombusPerimeter;whiteSpace=wrap;html=1;align=center;" vertex="1" parent="1">
          <mxGeometry x="280" y="790" width="120" height="60" as="geometry" />
        </mxCell>
        <mxCell id="anePZA5oc9GcaVcJhizd-3" value="EQUIPA" style="whiteSpace=wrap;html=1;align=center;" vertex="1" parent="1">
          <mxGeometry x="90" y="890" width="100" height="40" as="geometry" />
        </mxCell>
        <mxCell id="anePZA5oc9GcaVcJhizd-5" value="JOGO" style="whiteSpace=wrap;html=1;align=center;" vertex="1" parent="1">
          <mxGeometry x="510" y="800" width="100" height="40" as="geometry" />
        </mxCell>
        <mxCell id="anePZA5oc9GcaVcJhizd-16" value="FILIADO_A" style="shape=rhombus;perimeter=rhombusPerimeter;whiteSpace=wrap;html=1;align=center;" vertex="1" parent="1">
          <mxGeometry x="280" y="940" width="120" height="60" as="geometry" />
        </mxCell>
        <mxCell id="anePZA5oc9GcaVcJhizd-19" value="JOGADOR" style="whiteSpace=wrap;html=1;align=center;" vertex="1" parent="1">
          <mxGeometry x="510" y="950" width="100" height="40" as="geometry" />
        </mxCell>
        <mxCell id="anePZA5oc9GcaVcJhizd-27" value="AnoCorrente" style="ellipse;whiteSpace=wrap;html=1;align=center;" vertex="1" parent="1">
          <mxGeometry x="220" y="1030" width="100" height="40" as="geometry" />
        </mxCell>
        <mxCell id="anePZA5oc9GcaVcJhizd-28" value="Escalao" style="ellipse;whiteSpace=wrap;html=1;align=center;" vertex="1" parent="1">
          <mxGeometry x="364" y="1030" width="100" height="40" as="geometry" />
        </mxCell>
        <mxCell id="anePZA5oc9GcaVcJhizd-29" value="" style="endArrow=none;html=1;rounded=0;" edge="1" parent="1" source="anePZA5oc9GcaVcJhizd-27" target="anePZA5oc9GcaVcJhizd-16">
          <mxGeometry relative="1" as="geometry">
            <mxPoint x="350" y="790" as="sourcePoint" />
            <mxPoint x="510" y="790" as="targetPoint" />
          </mxGeometry>
        </mxCell>
        <mxCell id="anePZA5oc9GcaVcJhizd-30" value="" style="endArrow=none;html=1;rounded=0;" edge="1" parent="1" source="anePZA5oc9GcaVcJhizd-16" target="anePZA5oc9GcaVcJhizd-28">
          <mxGeometry relative="1" as="geometry">
            <mxPoint x="350" y="790" as="sourcePoint" />
            <mxPoint x="510" y="790" as="targetPoint" />
          </mxGeometry>
        </mxCell>
        <mxCell id="anePZA5oc9GcaVcJhizd-31" value="" style="shape=link;html=1;rounded=0;" edge="1" parent="1" source="anePZA5oc9GcaVcJhizd-1" target="anePZA5oc9GcaVcJhizd-5">
          <mxGeometry relative="1" as="geometry">
            <mxPoint x="350" y="790" as="sourcePoint" />
            <mxPoint x="510" y="790" as="targetPoint" />
          </mxGeometry>
        </mxCell>
        <mxCell id="anePZA5oc9GcaVcJhizd-32" value="M" style="resizable=0;html=1;whiteSpace=wrap;align=right;verticalAlign=bottom;" connectable="0" vertex="1" parent="anePZA5oc9GcaVcJhizd-31">
          <mxGeometry x="1" relative="1" as="geometry" />
        </mxCell>
        <mxCell id="anePZA5oc9GcaVcJhizd-36" value="" style="endArrow=none;html=1;rounded=0;" edge="1" parent="1" source="anePZA5oc9GcaVcJhizd-16" target="anePZA5oc9GcaVcJhizd-19">
          <mxGeometry relative="1" as="geometry">
            <mxPoint x="350" y="790" as="sourcePoint" />
            <mxPoint x="510" y="790" as="targetPoint" />
          </mxGeometry>
        </mxCell>
        <mxCell id="anePZA5oc9GcaVcJhizd-37" value="N" style="resizable=0;html=1;whiteSpace=wrap;align=right;verticalAlign=bottom;" connectable="0" vertex="1" parent="anePZA5oc9GcaVcJhizd-36">
          <mxGeometry x="1" relative="1" as="geometry" />
        </mxCell>
        <mxCell id="anePZA5oc9GcaVcJhizd-38" value="" style="shape=link;html=1;rounded=0;" edge="1" parent="1" source="anePZA5oc9GcaVcJhizd-16" target="anePZA5oc9GcaVcJhizd-3">
          <mxGeometry relative="1" as="geometry">
            <mxPoint x="350" y="790" as="sourcePoint" />
            <mxPoint x="510" y="790" as="targetPoint" />
          </mxGeometry>
        </mxCell>
        <mxCell id="anePZA5oc9GcaVcJhizd-39" value="1" style="resizable=0;html=1;whiteSpace=wrap;align=right;verticalAlign=bottom;" connectable="0" vertex="1" parent="anePZA5oc9GcaVcJhizd-38">
          <mxGeometry x="1" relative="1" as="geometry">
            <mxPoint x="20" as="offset" />
          </mxGeometry>
        </mxCell>
        <mxCell id="anePZA5oc9GcaVcJhizd-40" value="" style="endArrow=none;html=1;rounded=0;" edge="1" parent="1" source="anePZA5oc9GcaVcJhizd-1" target="anePZA5oc9GcaVcJhizd-3">
          <mxGeometry relative="1" as="geometry">
            <mxPoint x="350" y="790" as="sourcePoint" />
            <mxPoint x="510" y="790" as="targetPoint" />
          </mxGeometry>
        </mxCell>
        <mxCell id="anePZA5oc9GcaVcJhizd-41" value="N" style="resizable=0;html=1;whiteSpace=wrap;align=right;verticalAlign=bottom;" connectable="0" vertex="1" parent="anePZA5oc9GcaVcJhizd-40">
          <mxGeometry x="1" relative="1" as="geometry">
            <mxPoint x="20" y="-13" as="offset" />
          </mxGeometry>
        </mxCell>
      </root>
    </mxGraphModel>
  </diagram>
</mxfile>
